<svg width="36" height="48" viewBox="0 0 36 48" fill="none" xmlns="http://www.w3.org/2000/svg">
<path d="M35.8046 23.9972C35.6893 23.9811 35.5748 23.965 35.461 23.9489C35.3473 23.9328 35.2344 23.9168 35.1223 23.9007C35.0102 23.8845 34.8989 23.8685 34.7883 23.8523C34.6778 23.8362 34.5681 23.8201 34.4591 23.804C34.3502 23.7878 34.2421 23.7717 34.1347 23.7555C34.0273 23.7393 33.9207 23.7232 33.8149 23.7068C33.7091 23.6906 33.6041 23.6743 33.4997 23.658C33.3954 23.6416 33.292 23.6253 33.1893 23.6089C33.0865 23.5924 32.9845 23.5759 32.8833 23.5594C32.7821 23.5428 32.6817 23.5262 32.5819 23.5095C32.4822 23.4927 32.3832 23.4761 32.2849 23.4592C32.1867 23.4423 32.0892 23.4254 31.9925 23.4084C31.8957 23.3914 31.7997 23.3743 31.7044 23.3571C31.6091 23.3399 31.5146 23.3226 31.4206 23.3052C31.3268 23.2877 31.2336 23.2704 31.1413 23.2527C31.0489 23.2351 30.9571 23.2174 30.8662 23.1995C30.7752 23.1816 30.6849 23.1637 30.5953 23.1456C30.5057 23.1275 30.4169 23.1094 30.3287 23.091C30.2405 23.0726 30.1531 23.0541 30.0663 23.0355C29.9795 23.0169 29.8934 22.9981 29.808 22.9791C29.7225 22.9601 29.6378 22.9411 29.5537 22.9218C29.4696 22.9025 29.3862 22.8831 29.3036 22.8635C29.2209 22.8439 29.1388 22.8241 29.0574 22.8042C28.976 22.7842 28.8953 22.7641 28.8152 22.7438C28.7351 22.7235 28.6557 22.703 28.5769 22.6823C28.4981 22.6617 28.42 22.6407 28.3426 22.6197C28.2651 22.5986 28.1882 22.5772 28.1121 22.5558C28.0359 22.5342 27.9603 22.5124 27.8854 22.4905C27.8105 22.4685 27.7362 22.4464 27.6625 22.4239C27.5888 22.4015 27.5157 22.3789 27.4433 22.356C27.3709 22.3331 27.299 22.3099 27.2278 22.2865C27.1566 22.2632 27.086 22.2395 27.016 22.2157C26.946 22.1918 26.8766 22.1677 26.8078 22.1433C26.7389 22.1189 26.6707 22.0942 26.6032 22.0693C26.5355 22.0444 26.4685 22.0191 26.402 21.9936C26.3356 21.9682 26.2697 21.9423 26.2044 21.9163C26.1391 21.8902 26.0744 21.8638 26.0103 21.8372C25.9462 21.8105 25.8826 21.7836 25.8196 21.7563C25.7566 21.7291 25.6941 21.7015 25.6322 21.6736C25.5704 21.6457 25.509 21.6175 25.4483 21.589C25.3875 21.5604 25.3273 21.5316 25.2676 21.5025C25.2079 21.4733 25.1488 21.4438 25.0901 21.4139C25.0315 21.3841 24.9734 21.3539 24.9159 21.3232C24.8583 21.2927 24.8014 21.2618 24.7449 21.2306C24.6884 21.1994 24.6325 21.1677 24.577 21.1357C24.5215 21.1037 24.4666 21.0714 24.4122 21.0386C24.3578 21.0059 24.3039 20.9727 24.2504 20.9393C24.197 20.9058 24.1441 20.872 24.0917 20.8378C24.0394 20.8035 23.9874 20.7688 23.9361 20.7338C23.8847 20.6987 23.8337 20.6633 23.7832 20.6275C23.7328 20.5916 23.6829 20.5553 23.6334 20.5187C23.5839 20.482 23.5349 20.4449 23.4864 20.4073C23.4378 20.3698 23.3898 20.3319 23.3422 20.2935C23.2945 20.2551 23.2475 20.2163 23.2008 20.177C23.1541 20.1377 23.1079 20.098 23.0621 20.0578C23.0163 20.0177 22.971 19.9771 22.9262 19.936C22.8813 19.8949 22.8368 19.8535 22.7929 19.8115C22.7489 19.7695 22.7053 19.727 22.6623 19.6841C22.6192 19.6411 22.5765 19.5977 22.5342 19.5538C22.4919 19.51 22.4501 19.4655 22.4087 19.4207C22.3673 19.3759 22.3263 19.3305 22.2857 19.2846C22.2451 19.2387 22.205 19.1923 22.1652 19.1455C22.1254 19.0987 22.086 19.0512 22.0471 19.0033C22.0081 18.9554 21.9696 18.9069 21.9314 18.858C21.8932 18.809 21.8554 18.7596 21.8181 18.7096C21.7807 18.6596 21.7437 18.6091 21.707 18.5579C21.6704 18.5068 21.6341 18.4552 21.5983 18.4029C21.5624 18.3507 21.5269 18.298 21.4917 18.2447C21.4566 18.1914 21.4218 18.1375 21.3874 18.0832C21.353 18.0286 21.3189 17.9737 21.2852 17.9181C21.2515 17.8625 21.2182 17.8064 21.1851 17.7497C21.1521 17.693 21.1195 17.6356 21.0871 17.5777C21.0548 17.5197 21.0229 17.4612 20.9912 17.4021C20.9595 17.3429 20.9282 17.2833 20.8972 17.2229C20.8663 17.1626 20.8356 17.1016 20.8052 17.04C20.7749 16.9784 20.7448 16.9163 20.7151 16.8534C20.6855 16.7906 20.656 16.7271 20.6269 16.6631C20.5978 16.599 20.569 16.5343 20.5405 16.4689C20.512 16.4036 20.4838 16.3376 20.4559 16.2708C20.428 16.2042 20.4005 16.1369 20.3731 16.0689C20.3458 16.001 20.3188 15.9323 20.2921 15.8631C20.2653 15.7938 20.2389 15.7237 20.2127 15.6531C20.1865 15.5825 20.1605 15.5111 20.1349 15.4391C20.1092 15.367 20.0838 15.2944 20.0587 15.2209C20.0336 15.1475 20.0087 15.0734 19.9841 14.9986C19.9595 14.9237 19.9351 14.8482 19.911 14.772C19.8869 14.6958 19.863 14.6188 19.8394 14.5412C19.8158 14.4635 19.7923 14.3852 19.7692 14.306C19.7461 14.2269 19.7232 14.1471 19.7005 14.0666C19.6778 13.986 19.6553 13.9047 19.6331 13.8227C19.6109 13.7406 19.5889 13.6577 19.567 13.5742C19.5452 13.4906 19.5237 13.4063 19.5022 13.3212C19.4809 13.2362 19.4597 13.1503 19.4387 13.0637C19.4177 12.977 19.3969 12.8897 19.3764 12.8015C19.3558 12.7133 19.3354 12.6243 19.3152 12.5347C19.295 12.4449 19.275 12.3543 19.2552 12.2631C19.2353 12.1718 19.2157 12.0797 19.1962 11.9867C19.1768 11.8938 19.1575 11.8 19.1383 11.7055C19.1192 11.611 19.1002 11.5156 19.0814 11.4194C19.0626 11.3232 19.044 11.2262 19.0255 11.1284C19.007 11.0305 18.9887 10.9318 18.9705 10.8324C18.9523 10.7328 18.9342 10.6325 18.9164 10.5313C18.8985 10.4301 18.8807 10.328 18.8631 10.2251C18.8455 10.1222 18.828 10.0184 18.8106 9.91388C18.7933 9.80924 18.7761 9.70372 18.7589 9.59738C18.7418 9.49096 18.7248 9.38381 18.708 9.27561C18.691 9.16749 18.6743 9.05848 18.6577 8.94866C18.641 8.83876 18.6245 8.72797 18.6081 8.61628C18.5916 8.5046 18.5753 8.39203 18.559 8.27849C18.5428 8.16503 18.5267 8.05059 18.5106 7.93535C18.4946 7.82002 18.4786 7.70381 18.4627 7.5867C18.4468 7.46951 18.4311 7.35152 18.4154 7.23247C18.3997 7.11342 18.384 6.99348 18.3684 6.87265C18.3528 6.75174 18.3373 6.62995 18.3218 6.50718C18.3063 6.38441 18.291 6.26075 18.2757 6.13596C18.2603 6.01133 18.245 5.88564 18.2299 5.75899C18.2146 5.63242 18.1995 5.5048 18.1843 5.37628C18.1692 5.24777 18.1542 5.11821 18.1391 4.98767C18.124 4.85714 18.109 4.72572 18.094 4.59324C18.079 4.46077 18.064 4.32732 18.0491 4.19282C18.0342 4.05833 18.0192 3.92286 18.0044 3.78642C17.9895 3.6499 17.9746 3.51241 17.9598 3.37387C17.9449 3.23533 17.9301 3.09583 17.9152 2.95536C17.9004 2.81488 17.8855 2.67318 17.8707 2.5306C17.8558 2.38802 17.841 2.2444 17.8261 2.09971C17.8112 1.95503 17.7963 1.8093 17.7814 1.66252C17.7665 1.51574 17.7516 1.36791 17.7367 1.21902C17.7217 1.07014 17.7068 0.920122 17.6918 0.769138C17.6796 0.920542 17.6673 1.0709 17.6551 1.22028C17.6428 1.36959 17.6306 1.51784 17.6183 1.66504C17.606 1.81224 17.5938 1.95839 17.5815 2.10349C17.5692 2.24859 17.5569 2.39263 17.5446 2.53563C17.5323 2.67863 17.5199 2.82067 17.5076 2.96164C17.4953 3.10254 17.483 3.24255 17.4706 3.38143C17.4582 3.52038 17.4458 3.65829 17.4334 3.79515C17.421 3.93209 17.4085 4.06799 17.396 4.20282C17.3835 4.33775 17.3709 4.47162 17.3583 4.60452C17.3457 4.73742 17.333 4.86926 17.3203 5.00023C17.3076 5.13119 17.2948 5.26104 17.282 5.39014C17.2692 5.51909 17.2563 5.64713 17.2433 5.77414C17.2304 5.90115 17.2173 6.02727 17.2042 6.15234C17.1911 6.27741 17.178 6.40159 17.1648 6.5248C17.1516 6.64802 17.1382 6.77026 17.1248 6.89161C17.1114 7.01297 17.0979 7.13336 17.0843 7.25278C17.0707 7.37228 17.057 7.49073 17.0432 7.60838C17.0295 7.72602 17.0156 7.84261 17.0016 7.9584C16.9876 8.07419 16.9735 8.18901 16.9594 8.30302C16.9452 8.41696 16.9309 8.53008 16.9165 8.64224C16.902 8.7544 16.8875 8.86567 16.8728 8.97606C16.8581 9.08644 16.8433 9.19594 16.8284 9.30447C16.8134 9.41308 16.7984 9.5208 16.7832 9.62772C16.768 9.73464 16.7527 9.84059 16.7372 9.94574C16.7217 10.0509 16.7061 10.1551 16.6903 10.2585C16.6745 10.362 16.6586 10.4645 16.6425 10.5663C16.6264 10.668 16.6102 10.7689 16.5938 10.8689C16.5774 10.969 16.5608 11.0681 16.5441 11.1665C16.5274 11.2649 16.5105 11.3625 16.4934 11.4592C16.4763 11.556 16.4591 11.6519 16.4416 11.747C16.4242 11.8421 16.4066 11.9364 16.3888 12.0299C16.371 12.1233 16.3529 12.2161 16.3348 12.308C16.3166 12.3999 16.2982 12.491 16.2796 12.5814C16.2611 12.6718 16.2423 12.7613 16.2233 12.85C16.2042 12.9387 16.1851 13.0268 16.1657 13.1141C16.1463 13.2013 16.1266 13.2878 16.1067 13.3735C16.0869 13.4592 16.0668 13.5442 16.0465 13.6284C16.0262 13.7126 16.0057 13.7961 15.9849 13.8788C15.9641 13.9615 15.9431 14.0435 15.9219 14.1248C15.9007 14.206 15.8792 14.2866 15.8574 14.3664C15.8356 14.4461 15.8137 14.5252 15.7915 14.6036C15.7693 14.682 15.7468 14.7596 15.724 14.8366C15.7013 14.9136 15.6783 14.9898 15.655 15.0653C15.6317 15.141 15.6082 15.2157 15.5844 15.2899C15.5606 15.3641 15.5365 15.4376 15.5121 15.5104C15.4878 15.5832 15.4631 15.6552 15.4382 15.7267C15.4133 15.7982 15.3881 15.869 15.3626 15.9391C15.3371 16.0091 15.3113 16.0786 15.2852 16.1474C15.2591 16.2162 15.2328 16.2843 15.206 16.3518C15.1793 16.4193 15.1523 16.4862 15.125 16.5525C15.0977 16.6187 15.0701 16.6842 15.0422 16.7492C15.0143 16.8142 14.986 16.8785 14.9573 16.9423C14.9288 17.006 14.8999 17.0691 14.8706 17.1316C14.8414 17.1941 14.8119 17.2559 14.7819 17.3172C14.752 17.3785 14.7218 17.4391 14.6912 17.4992C14.6606 17.5594 14.6297 17.6188 14.5984 17.6778C14.5671 17.7367 14.5355 17.795 14.5035 17.8527C14.4715 17.9105 14.4392 17.9677 14.4065 18.0242C14.3738 18.0808 14.3407 18.1368 14.3073 18.1924C14.2738 18.2479 14.24 18.3028 14.2059 18.3571C14.1717 18.4116 14.1372 18.4654 14.1022 18.5186C14.0672 18.5718 14.0319 18.6247 13.9963 18.6769C13.9606 18.7291 13.9244 18.7808 13.888 18.8319C13.8515 18.8831 13.8146 18.9337 13.7773 18.9838C13.74 19.0339 13.7023 19.0836 13.6643 19.1326C13.6262 19.1817 13.5877 19.2303 13.5487 19.2784C13.5098 19.3266 13.4705 19.3741 13.4307 19.4212C13.3909 19.4683 13.3508 19.5149 13.3102 19.5611C13.2696 19.6073 13.2286 19.653 13.1871 19.6981C13.1457 19.7432 13.1038 19.788 13.0614 19.8322C13.0191 19.8765 12.9763 19.9203 12.9331 19.9636C12.8899 20.0069 12.8462 20.0498 12.8021 20.0923C12.758 20.1347 12.7134 20.1766 12.6684 20.2182C12.6233 20.2598 12.5779 20.3009 12.5319 20.3417C12.486 20.3823 12.4396 20.4226 12.3926 20.4625C12.3457 20.5023 12.2984 20.5417 12.2505 20.5807C12.2027 20.6197 12.1543 20.6583 12.1056 20.6965C12.0568 20.7348 12.0075 20.7725 11.9577 20.8099C11.9079 20.8474 11.8577 20.8844 11.8068 20.9209C11.7561 20.9576 11.7048 20.9938 11.6531 21.0297C11.6013 21.0655 11.549 21.101 11.4962 21.1361C11.4435 21.1712 11.3901 21.206 11.3363 21.2403C11.2825 21.2747 11.2282 21.3088 11.1733 21.3425C11.1185 21.3762 11.0631 21.4095 11.0071 21.4425C10.9512 21.4756 10.8948 21.5082 10.8378 21.5404C10.7808 21.5728 10.7233 21.6048 10.6653 21.6364C10.6072 21.6681 10.5486 21.6995 10.4894 21.7305C10.4303 21.7615 10.3706 21.7922 10.3103 21.8226C10.2501 21.853 10.1893 21.883 10.1279 21.9127C10.0665 21.9425 10.0046 21.972 9.9421 22.0012C9.87957 22.0305 9.81649 22.0593 9.75285 22.0879C9.68921 22.1166 9.62495 22.1449 9.5602 22.173C9.49539 22.2011 9.43001 22.2289 9.36402 22.2565C9.29803 22.284 9.23149 22.3113 9.16433 22.3383C9.09716 22.3653 9.02938 22.3921 8.96111 22.4186C8.89271 22.4451 8.82376 22.4714 8.75425 22.4974C8.68474 22.5235 8.61454 22.5493 8.54374 22.5748C8.47299 22.6004 8.40157 22.6257 8.32958 22.6508C8.2576 22.676 8.18495 22.7008 8.11167 22.7256C8.03839 22.7503 7.96449 22.7747 7.88998 22.799C7.81547 22.8232 7.74033 22.8474 7.66452 22.8712C7.58871 22.8951 7.5123 22.9188 7.43525 22.9423C7.35815 22.9658 7.28042 22.9891 7.20208 23.0121C7.12368 23.0353 7.04466 23.0582 6.96502 23.081C6.88533 23.1038 6.80495 23.1264 6.72396 23.1489C6.64297 23.1714 6.5613 23.1937 6.47889 23.2158C6.39654 23.238 6.3135 23.26 6.22986 23.2818C6.14615 23.3037 6.06176 23.3254 5.9767 23.347C5.89164 23.3686 5.80591 23.3899 5.71943 23.4113C5.63301 23.4326 5.54584 23.4538 5.45806 23.4749C5.37022 23.496 5.28171 23.517 5.19251 23.5378C5.10326 23.5586 5.01339 23.5793 4.92271 23.6C4.83204 23.6206 4.74069 23.6412 4.64866 23.6617C4.55657 23.6821 4.46381 23.7024 4.3703 23.7228C4.27673 23.7431 4.1826 23.7633 4.08755 23.7834C3.99263 23.8035 3.8969 23.8236 3.8005 23.8436C3.70409 23.8636 3.60689 23.8835 3.50901 23.9034C3.41112 23.9232 3.31244 23.943 3.21302 23.9628C3.11359 23.9826 3.0135 24.0024 2.9126 24.022C2.8117 24.0417 2.71006 24.0614 2.60762 24.081C2.50518 24.1006 2.40199 24.1202 2.29808 24.1396C2.19416 24.1591 2.08939 24.1788 1.98393 24.1983C1.87841 24.2178 1.77215 24.2373 1.66515 24.2568C1.55816 24.2763 1.4503 24.2959 1.34164 24.3153C1.23304 24.3349 1.12365 24.3543 1.01345 24.3739C0.903254 24.3935 0.792259 24.413 0.680463 24.4325C0.568665 24.4521 0.45607 24.4717 0.342673 24.4913C0.229275 24.5109 0.115011 24.5305 7.55588e-05 24.5502C0.115393 24.5663 0.229917 24.5825 0.343633 24.5986C0.457349 24.6147 0.570264 24.6307 0.682381 24.6468C0.794497 24.663 0.905811 24.679 1.01633 24.6952C1.12684 24.7113 1.23656 24.7274 1.34553 24.7435C1.45445 24.7597 1.56256 24.7758 1.67 24.792C1.77744 24.8082 1.88397 24.8244 1.98974 24.8407C2.09558 24.8569 2.20061 24.8732 2.30485 24.8896C2.40915 24.906 2.5126 24.9223 2.61536 24.9387C2.71812 24.9552 2.82008 24.9717 2.92131 24.9883C3.02253 25.0048 3.12295 25.0214 3.2227 25.0382C3.32245 25.0549 3.42141 25.0715 3.51968 25.0884C3.61795 25.1054 3.71543 25.1222 3.81216 25.1392C3.9089 25.1562 4.00495 25.1733 4.10021 25.1905C4.19547 25.2077 4.29005 25.225 4.38396 25.2424C4.4778 25.2597 4.57091 25.2773 4.66335 25.2949C4.75578 25.3125 4.84747 25.3302 4.93842 25.3481C5.02944 25.3659 5.11967 25.3839 5.20927 25.402C5.29887 25.4201 5.38767 25.4382 5.47586 25.4566C5.56405 25.475 5.65151 25.4935 5.73829 25.5121C5.82507 25.5307 5.91123 25.5495 5.99666 25.5685C6.08208 25.5875 6.16683 25.6065 6.2509 25.6258C6.33498 25.6451 6.41838 25.6645 6.5011 25.684C6.58382 25.7037 6.66587 25.7234 6.7473 25.7434C6.82874 25.7633 6.90943 25.7834 6.98952 25.8038C7.0696 25.824 7.14901 25.8446 7.22774 25.8653C7.30653 25.886 7.38466 25.907 7.4621 25.928C7.5396 25.9491 7.61637 25.9704 7.69258 25.9919C7.7688 26.0135 7.84434 26.0352 7.91927 26.0572C7.99419 26.0792 8.06851 26.1013 8.14221 26.1237C8.21591 26.1462 8.28893 26.1688 8.3614 26.1917C8.43381 26.2146 8.50568 26.2377 8.57686 26.2611C8.64805 26.2845 8.71867 26.3082 8.78869 26.332C8.85871 26.3558 8.92806 26.38 8.99692 26.4044C9.06577 26.4288 9.13395 26.4535 9.20152 26.4784C9.26908 26.5034 9.33616 26.5286 9.40262 26.5541C9.46908 26.5795 9.53493 26.6053 9.60023 26.6314C9.66553 26.6575 9.73022 26.6839 9.79435 26.7105C9.85849 26.7372 9.92207 26.7641 9.9851 26.7914C10.0481 26.8186 10.1106 26.8462 10.1724 26.8741C10.2343 26.902 10.2957 26.9302 10.3564 26.9588C10.4172 26.9873 10.4774 27.0161 10.5371 27.0453C10.5969 27.0744 10.656 27.1039 10.7146 27.1339C10.7732 27.1637 10.8313 27.1939 10.8888 27.2245C10.9464 27.2551 11.0034 27.286 11.0599 27.3172C11.1163 27.3484 11.1723 27.3801 11.2278 27.4121C11.2832 27.444 11.3381 27.4764 11.3926 27.5092C11.447 27.5419 11.5009 27.575 11.5543 27.6084C11.6077 27.6419 11.6606 27.6757 11.713 27.71C11.7654 27.7443 11.8173 27.7789 11.8687 27.8139C11.9201 27.849 11.971 27.8845 12.0215 27.9203C12.0719 27.9562 12.1219 27.9924 12.1714 28.0291C12.2209 28.0658 12.2698 28.1028 12.3184 28.1405C12.3669 28.1779 12.415 28.2159 12.4626 28.2543C12.5102 28.2927 12.5573 28.3315 12.604 28.3707C12.6506 28.41 12.6968 28.4497 12.7426 28.4899C12.7883 28.53 12.8336 28.5707 12.8786 28.6117C12.9235 28.6527 12.9679 28.6943 13.0118 28.7363C13.0558 28.7783 13.0994 28.8208 13.1424 28.8637C13.1855 28.9067 13.2282 28.9501 13.2705 28.9939C13.3129 29.0378 13.3547 29.0822 13.396 29.127C13.4375 29.1719 13.4784 29.2173 13.519 29.2632C13.5596 29.309 13.5998 29.3554 13.6395 29.4023C13.6793 29.4491 13.7187 29.4966 13.7576 29.5445C13.7966 29.5924 13.8351 29.6408 13.8733 29.6898C13.9115 29.7387 13.9492 29.7883 13.9867 29.8382C14.0241 29.8882 14.0611 29.9387 14.0977 29.9899C14.1343 30.041 14.1706 30.0926 14.2065 30.1448C14.2423 30.1971 14.2778 30.2498 14.313 30.303C14.3482 30.3564 14.383 30.4102 14.4173 30.4646C14.4518 30.519 14.4858 30.574 14.5195 30.6297C14.5533 30.6853 14.5866 30.7414 14.6196 30.7981C14.6526 30.8548 14.6852 30.9122 14.7176 30.9701C14.7499 31.028 14.7818 31.0865 14.8135 31.1457C14.8452 31.2049 14.8765 31.2645 14.9075 31.3249C14.9385 31.3853 14.9692 31.4461 14.9995 31.5077C15.0299 31.5693 15.0599 31.6315 15.0896 31.6943C15.1193 31.7572 15.1487 31.8206 15.1778 31.8847C15.207 31.9487 15.2357 32.0135 15.2642 32.0789C15.2927 32.1443 15.3209 32.2102 15.3488 32.2769C15.3767 32.3436 15.4043 32.4109 15.4316 32.4788C15.4589 32.5468 15.4859 32.6155 15.5127 32.6847C15.5394 32.754 15.5659 32.824 15.5921 32.8947C15.6182 32.9653 15.6442 33.0366 15.6699 33.1087C15.6955 33.1807 15.7209 33.2534 15.7461 33.3269C15.7712 33.4003 15.7961 33.4744 15.8206 33.5492C15.8452 33.624 15.8696 33.6996 15.8937 33.7757C15.9178 33.852 15.9417 33.9289 15.9654 34.0066C15.989 34.0843 16.0124 34.1626 16.0355 34.2417C16.0587 34.3208 16.0815 34.4006 16.1043 34.4813C16.127 34.5618 16.1495 34.6432 16.1717 34.7252C16.1939 34.8072 16.2159 34.8901 16.2377 34.9737C16.2595 35.0572 16.2811 35.1416 16.3025 35.2266C16.3239 35.3117 16.3451 35.3975 16.3661 35.4842C16.3871 35.5708 16.4079 35.6582 16.4284 35.7464C16.449 35.8345 16.4694 35.9235 16.4896 36.0132C16.5098 36.103 16.5298 36.1935 16.5496 36.2848C16.5695 36.376 16.5891 36.4682 16.6086 36.5611C16.628 36.654 16.6473 36.7478 16.6665 36.8423C16.6856 36.9368 16.7046 37.0322 16.7234 37.1284C16.7422 37.2246 16.7608 37.3217 16.7793 37.4195C16.7978 37.5173 16.8161 37.616 16.8343 37.7155C16.8525 37.815 16.8706 37.9154 16.8884 38.0165C16.9063 38.1178 16.9241 38.2198 16.9416 38.3226C16.9593 38.4256 16.9767 38.5293 16.9941 38.6339C17.0114 38.7385 17.0287 38.844 17.0458 38.9504C17.063 39.0567 17.0799 39.1639 17.0968 39.2721C17.1137 39.3803 17.1304 39.4893 17.147 39.5991C17.1637 39.709 17.1802 39.8198 17.1967 39.9315C17.2131 40.0432 17.2294 40.1557 17.2457 40.2693C17.2619 40.3827 17.278 40.4972 17.2941 40.6125C17.3101 40.7278 17.3261 40.844 17.3419 40.9611C17.3578 41.0783 17.3736 41.1963 17.3893 41.3154C17.405 41.4344 17.4207 41.5544 17.4363 41.6752C17.4519 41.796 17.4673 41.9179 17.4828 42.0407C17.4983 42.1635 17.5137 42.2871 17.529 42.4119C17.5443 42.5365 17.5596 42.6622 17.5749 42.7888C17.5901 42.9153 17.6053 43.043 17.6204 43.1715C17.6355 43.3 17.6506 43.4296 17.6657 43.5601C17.6807 43.6906 17.6957 43.8221 17.7107 43.9546C17.7257 44.0871 17.7406 44.2205 17.7556 44.355C17.7705 44.4895 17.7854 44.6249 17.8003 44.7614C17.8152 44.8979 17.83 45.0354 17.8448 45.1739C17.8597 45.3124 17.8745 45.4519 17.8894 45.5924C17.9042 45.7329 17.9191 45.8745 17.9339 46.0172C17.9488 46.1597 17.9636 46.3034 17.9785 46.4481C17.9934 46.5927 18.0083 46.7385 18.0232 46.8853C18.0381 47.032 18.053 47.1799 18.0679 47.3288C18.0829 47.4776 18.0979 47.6276 18.1128 47.7785C18.1251 47.6271 18.1374 47.4768 18.1496 47.3274C18.1619 47.1781 18.1741 47.0298 18.1864 46.8826C18.1987 46.7354 18.2109 46.5893 18.2232 46.4442C18.2355 46.2991 18.2478 46.1551 18.2601 46.0121C18.2724 45.8691 18.2847 45.7271 18.297 45.586C18.3094 45.4451 18.3216 45.3051 18.3341 45.1663C18.3464 45.0273 18.3589 44.8894 18.3713 44.7524C18.3837 44.6155 18.3962 44.4797 18.4087 44.3448C18.4212 44.2099 18.4338 44.076 18.4464 43.9431C18.459 43.8102 18.4717 43.6783 18.4844 43.5473C18.4971 43.4163 18.5098 43.2864 18.5227 43.1574C18.5355 43.0284 18.5484 42.9004 18.5613 42.7734C18.5743 42.6464 18.5873 42.5203 18.6004 42.3952C18.6135 42.2701 18.6267 42.1459 18.6399 42.0227C18.6531 41.8994 18.6664 41.7772 18.6799 41.6559C18.6933 41.5346 18.7068 41.4142 18.7204 41.2947C18.734 41.1752 18.7476 41.0568 18.7614 40.9392C18.7752 40.8215 18.7891 40.7049 18.803 40.5891C18.817 40.4733 18.8311 40.3585 18.8453 40.2446C18.8595 40.1306 18.8738 40.0175 18.8883 39.9054C18.9027 39.7932 18.9172 39.6819 18.9319 39.5715C18.9466 39.4612 18.9614 39.3517 18.9763 39.2431C18.9913 39.1344 19.0063 39.0267 19.0215 38.9198C19.0366 38.8129 19.0519 38.7069 19.0675 38.6018C19.0829 38.4966 19.0986 38.3924 19.1144 38.289C19.1302 38.1857 19.1461 38.083 19.1621 37.9813C19.1782 37.8796 19.1944 37.7788 19.2108 37.6787C19.2272 37.5786 19.2438 37.4795 19.2605 37.3811C19.2772 37.2827 19.2941 37.1852 19.3112 37.0884C19.3283 36.9916 19.3455 36.8958 19.363 36.8006C19.3804 36.7055 19.398 36.6112 19.4158 36.5177C19.4336 36.4243 19.4517 36.3315 19.4698 36.2396C19.488 36.1477 19.5064 36.0566 19.525 35.9662C19.5435 35.8759 19.5623 35.7863 19.5813 35.6976C19.6003 35.6088 19.6195 35.5208 19.6389 35.4336C19.6584 35.3463 19.678 35.2598 19.6979 35.1741C19.7177 35.0884 19.7378 35.0034 19.7581 34.9192C19.7784 34.835 19.7989 34.7515 19.8197 34.6688C19.8405 34.5861 19.8615 34.5041 19.8827 34.4229C19.904 34.3416 19.9255 34.261 19.9471 34.1813C19.9689 34.1015 19.9908 34.0225 20.013 33.9441C20.0352 33.8657 20.0577 33.788 20.0805 33.7111C20.1032 33.6341 20.1262 33.5579 20.1496 33.4823C20.1728 33.4067 20.1964 33.3319 20.2201 33.2578C20.2439 33.1836 20.268 33.1102 20.2924 33.0373C20.3167 32.9645 20.3414 32.8925 20.3664 32.821C20.3913 32.7495 20.4165 32.6787 20.442 32.6086C20.4674 32.5385 20.4932 32.469 20.5193 32.4003C20.5454 32.3315 20.5718 32.2634 20.5985 32.1959C20.6252 32.1284 20.6522 32.0615 20.6795 31.9952C20.7068 31.9289 20.7345 31.8635 20.7624 31.7984C20.7903 31.7334 20.8185 31.6692 20.8471 31.6055C20.8757 31.5418 20.9046 31.4787 20.9338 31.4162C20.9631 31.3537 20.9926 31.2919 21.0225 31.2305C21.0524 31.1693 21.0827 31.1086 21.1133 31.0485C21.1439 30.9885 21.1748 30.9289 21.2061 30.87C21.2374 30.8111 21.269 30.7527 21.301 30.695C21.333 30.6373 21.3653 30.5801 21.398 30.5236C21.4307 30.467 21.4638 30.4109 21.4972 30.3554C21.5306 30.2998 21.5645 30.245 21.5986 30.1906C21.6327 30.1362 21.6673 30.0824 21.7023 30.0292C21.7373 29.9759 21.7725 29.9231 21.8082 29.8709C21.8439 29.8187 21.88 29.767 21.9165 29.7158C21.953 29.6647 21.9899 29.6141 22.0272 29.564C22.0645 29.5138 22.1021 29.4642 22.1402 29.4151C22.1783 29.366 22.2168 29.3174 22.2558 29.2693C22.2947 29.2213 22.334 29.1736 22.3738 29.1265C22.4136 29.0795 22.4537 29.0329 22.4943 28.9866C22.5349 28.9405 22.5759 28.8948 22.6174 28.8497C22.6588 28.8046 22.7007 28.7597 22.7431 28.7155C22.7854 28.6712 22.8282 28.6275 22.8714 28.5842C22.9145 28.5408 22.9582 28.498 23.0024 28.4555C23.0465 28.413 23.091 28.3711 23.1361 28.3295C23.1812 28.2879 23.2266 28.2468 23.2726 28.2061C23.3186 28.1654 23.3649 28.1252 23.4119 28.0853C23.4588 28.0455 23.5061 28.006 23.554 27.9671C23.6018 27.9281 23.6502 27.8894 23.699 27.8512C23.7477 27.8129 23.7971 27.7752 23.8468 27.7378C23.8966 27.7003 23.9469 27.6633 23.9977 27.6267C24.0485 27.5901 24.0997 27.5539 24.1515 27.518C24.2032 27.4821 24.2556 27.4467 24.3083 27.4116C24.361 27.3765 24.4144 27.3417 24.4682 27.3074C24.522 27.273 24.5763 27.2389 24.6312 27.2052C24.6861 27.1715 24.7414 27.1382 24.7974 27.1052C24.8533 27.0722 24.9098 27.0395 24.9667 27.0073C25.0238 26.9749 25.0813 26.9429 25.1393 26.9112C25.1973 26.8796 25.256 26.8483 25.3151 26.8172C25.3742 26.7861 25.4339 26.7555 25.4942 26.7251C25.5545 26.6948 25.6152 26.6647 25.6767 26.6348C25.738 26.605 25.8 26.5755 25.8624 26.5463C25.925 26.5171 25.9881 26.4882 26.0517 26.4596C26.1153 26.431 26.1795 26.4026 26.2443 26.3745C26.3092 26.3464 26.3745 26.3186 26.4405 26.2911C26.5065 26.2635 26.5731 26.2362 26.6402 26.2093C26.7074 26.1823 26.7752 26.1555 26.8434 26.1289C26.9118 26.1024 26.9808 26.0761 27.0503 26.0501C27.1198 26.0241 27.19 25.9982 27.2608 25.9727C27.3316 25.9472 27.403 25.9218 27.475 25.8967C27.5469 25.8716 27.6196 25.8467 27.6929 25.822C27.7662 25.7972 27.8401 25.7728 27.9146 25.7486C27.9891 25.7243 28.0642 25.7002 28.14 25.6763C28.2158 25.6524 28.2923 25.6287 28.3693 25.6053C28.4464 25.5818 28.5241 25.5584 28.6025 25.5353C28.6809 25.5122 28.7599 25.4892 28.8396 25.4664C28.9192 25.4436 28.9997 25.421 29.0807 25.3985C29.1616 25.376 29.2433 25.3538 29.3257 25.3316C29.4081 25.3095 29.4911 25.2874 29.5748 25.2657C29.6585 25.2438 29.7429 25.2221 29.828 25.2005C29.913 25.1789 29.9988 25.1576 30.0852 25.1362C30.1717 25.1149 30.2588 25.0938 30.3466 25.0726C30.4344 25.0515 30.523 25.0305 30.6122 25.0097C30.7014 24.9889 30.7913 24.9682 30.8819 24.9475C30.9726 24.9269 31.064 24.9063 31.156 24.8858C31.2481 24.8654 31.3409 24.8451 31.4344 24.8247C31.5279 24.8044 31.6221 24.7843 31.7171 24.7642C31.812 24.7441 31.9077 24.724 32.0041 24.704C32.1005 24.684 32.1977 24.6641 32.2956 24.6442C32.3935 24.6244 32.4922 24.6046 32.5915 24.5849C32.6909 24.5651 32.7911 24.5454 32.892 24.5257C32.9929 24.5061 33.0945 24.4864 33.197 24.4668C33.2994 24.4472 33.4026 24.4276 33.5065 24.4081C33.6105 24.3886 33.7152 24.369 33.8207 24.3496C33.9262 24.3301 34.0325 24.3106 34.1395 24.2911C34.2465 24.2716 34.3543 24.2521 34.463 24.2326C34.5716 24.2131 34.681 24.1936 34.7912 24.174C34.9014 24.1545 35.0123 24.135 35.1241 24.1154C35.2359 24.0958 35.3485 24.0763 35.4619 24.0567C35.5755 24.0366 35.6896 24.0169 35.8046 23.9972Z" fill="#D33805"/>
</svg>
